<svg
  height="400"
  viewBox="0 0 400 400"
  width="400"
  xmlns="http://www.w3.org/2000/svg"
>
  <rect fill="#0A0A0A" height="400" width="400"></rect>
  <path
    d="M246.0 99.5L245.0 100.5L238.0 100.5L237.0 101.5L233.0 101.5L226.0 103.5L217.0 107.5L211.0 111.5L200.5 122.0L196.5 128.0L190.5 142.0L189.5 154.0L188.5 155.0L190.0 156.5L203.0 156.5L204.0 157.5L220.0 157.5L221.0 158.5L225.0 158.5L227.5 148.0L232.5 139.0L236.0 135.5L246.0 130.5L255.0 129.5L256.0 130.5L261.0 130.5L268.0 133.5L273.5 139.0L276.5 147.0L275.5 157.0L273.5 161.0L267.0 167.5L260.0 172.5L244.0 180.5L226.0 191.5L217.0 198.5L205.5 210.0L197.5 222.0L192.5 234.0L190.5 246.0L189.5 247.0L188.5 267.0L312.0 267.5L312.0 237.5L231.5 237.0L231.5 235.0L235.5 228.0L244.0 219.5L258.0 209.5L284.0 195.5L300.0 183.5L307.5 174.0L312.5 161.0L312.5 139.0L311.5 138.0L311.5 135.0L305.5 122.0L297.0 112.5L291.0 108.5L278.0 102.5L274.0 102.5L268.0 100.5L260.0 100.5L259.0 99.5ZM103.0 114.5L101.5 116.0L101.5 142.0L102.5 143.0L82.5 144.0L82.5 169.0L84.0 170.5L102.5 171.0L101.5 172.0L101.5 230.0L102.5 231.0L103.5 246.0L106.5 251.0L106.5 253.0L113.0 260.5L126.0 266.5L131.0 266.5L132.0 267.5L169.0 267.5L169.5 241.0L146.0 240.5L142.0 238.5L137.5 232.0L137.5 171.0L168.0 170.5L169.5 169.0L169.5 144.0L138.0 143.5L137.0 114.5Z"
    fill="#FFFFFF"
    fill-rule="evenodd"
  ></path>
</svg>
